<mxfile host="65bd71144e">
    <diagram id="rY4A8EPSjpD08Lf-LVS9" name="Monolithic System">
        <mxGraphModel dx="798" dy="784" grid="1" gridSize="10" guides="1" tooltips="1" connect="1" arrows="1" fold="1" page="1" pageScale="1" pageWidth="850" pageHeight="1100" math="0" shadow="0">
            <root>
                <mxCell id="0"/>
                <mxCell id="1" parent="0"/>
                <mxCell id="22" value="" style="group" vertex="1" connectable="0" parent="1">
                    <mxGeometry x="108" y="89" width="770" height="560" as="geometry"/>
                </mxCell>
                <mxCell id="10" style="edgeStyle=none;html=1;entryX=0;entryY=0.625;entryDx=0;entryDy=0;entryPerimeter=0;" edge="1" parent="22" target="8">
                    <mxGeometry relative="1" as="geometry">
                        <mxPoint x="480" y="135" as="sourcePoint"/>
                    </mxGeometry>
                </mxCell>
                <mxCell id="11" style="edgeStyle=none;html=1;" edge="1" parent="22">
                    <mxGeometry relative="1" as="geometry">
                        <mxPoint x="336" y="280" as="sourcePoint"/>
                        <mxPoint x="336" y="330" as="targetPoint"/>
                    </mxGeometry>
                </mxCell>
                <mxCell id="2" value="" style="whiteSpace=wrap;html=1;aspect=fixed;" vertex="1" parent="22">
                    <mxGeometry x="200" width="280" height="280" as="geometry"/>
                </mxCell>
                <mxCell id="3" value="Flight Information System (Monolith)" style="text;html=1;strokeColor=none;fillColor=none;align=center;verticalAlign=middle;whiteSpace=wrap;rounded=0;" vertex="1" parent="22">
                    <mxGeometry x="200" width="220" height="30" as="geometry"/>
                </mxCell>
                <mxCell id="4" value="FlightSearchService" style="rounded=0;whiteSpace=wrap;html=1;" vertex="1" parent="22">
                    <mxGeometry x="230" y="33" width="220" height="40" as="geometry"/>
                </mxCell>
                <mxCell id="5" value="FlightStatusService" style="rounded=0;whiteSpace=wrap;html=1;" vertex="1" parent="22">
                    <mxGeometry x="230" y="84" width="220" height="40" as="geometry"/>
                </mxCell>
                <mxCell id="6" value="BookingManagementService" style="rounded=0;whiteSpace=wrap;html=1;" vertex="1" parent="22">
                    <mxGeometry x="230" y="134" width="220" height="40" as="geometry"/>
                </mxCell>
                <mxCell id="7" value="PassengerDataManagementService" style="rounded=0;whiteSpace=wrap;html=1;" vertex="1" parent="22">
                    <mxGeometry x="230" y="184" width="220" height="40" as="geometry"/>
                </mxCell>
                <mxCell id="8" value="Shared Database (RDBMS)" style="shape=cylinder3;whiteSpace=wrap;html=1;boundedLbl=1;backgroundOutline=1;size=15;" vertex="1" parent="22">
                    <mxGeometry x="630" y="60" width="140" height="120" as="geometry"/>
                </mxCell>
                <mxCell id="9" value="" style="shape=cylinder3;whiteSpace=wrap;html=1;boundedLbl=1;backgroundOutline=1;size=15;rotation=90;" vertex="1" parent="22">
                    <mxGeometry x="324.5" y="120" width="22" height="450" as="geometry"/>
                </mxCell>
                <mxCell id="12" value="Elasticsearch DB" style="shape=cylinder3;whiteSpace=wrap;html=1;boundedLbl=1;backgroundOutline=1;size=15;" vertex="1" parent="22">
                    <mxGeometry x="620" y="280" width="140" height="120" as="geometry"/>
                </mxCell>
                <mxCell id="15" style="edgeStyle=none;html=1;entryX=-0.007;entryY=0.558;entryDx=0;entryDy=0;entryPerimeter=0;" edge="1" parent="22" source="9" target="12">
                    <mxGeometry relative="1" as="geometry"/>
                </mxCell>
                <mxCell id="13" value="Kibana" style="swimlane;whiteSpace=wrap;html=1;" vertex="1" parent="22">
                    <mxGeometry x="620" y="460" width="120" height="100" as="geometry"/>
                </mxCell>
                <mxCell id="14" style="edgeStyle=none;html=1;" edge="1" parent="22" source="12" target="13">
                    <mxGeometry relative="1" as="geometry"/>
                </mxCell>
                <mxCell id="16" value="Transaction Data" style="text;html=1;strokeColor=none;fillColor=none;align=center;verticalAlign=middle;whiteSpace=wrap;rounded=0;" vertex="1" parent="22">
                    <mxGeometry x="490" y="105" width="110" height="30" as="geometry"/>
                </mxCell>
                <mxCell id="17" value="Event Data" style="text;html=1;strokeColor=none;fillColor=none;align=center;verticalAlign=middle;whiteSpace=wrap;rounded=0;" vertex="1" parent="22">
                    <mxGeometry x="340" y="290" width="75" height="30" as="geometry"/>
                </mxCell>
                <mxCell id="18" value="Streaming Platform (e.g., Kafka)" style="text;html=1;strokeColor=none;fillColor=none;align=center;verticalAlign=middle;whiteSpace=wrap;rounded=0;" vertex="1" parent="22">
                    <mxGeometry x="270" y="360" width="110" height="30" as="geometry"/>
                </mxCell>
                <mxCell id="20" style="edgeStyle=none;html=1;entryX=0.004;entryY=0.475;entryDx=0;entryDy=0;entryPerimeter=0;" edge="1" parent="22" source="19" target="2">
                    <mxGeometry relative="1" as="geometry"/>
                </mxCell>
                <mxCell id="19" value="Customer&lt;br&gt;(Web App)" style="whiteSpace=wrap;html=1;aspect=fixed;" vertex="1" parent="22">
                    <mxGeometry y="95" width="80" height="80" as="geometry"/>
                </mxCell>
                <mxCell id="21" value="&lt;u&gt;&lt;i&gt;Other Services, Integrations &amp;amp; Utilities&lt;/i&gt;&lt;/u&gt;" style="rounded=0;whiteSpace=wrap;html=1;" vertex="1" parent="22">
                    <mxGeometry x="230" y="233" width="220" height="40" as="geometry"/>
                </mxCell>
            </root>
        </mxGraphModel>
    </diagram>
    <diagram id="BOEQWp2oFNmfjviG9RFT" name="Microservices Approach">
        <mxGraphModel dx="798" dy="784" grid="1" gridSize="10" guides="1" tooltips="1" connect="1" arrows="1" fold="1" page="1" pageScale="1" pageWidth="850" pageHeight="1100" math="0" shadow="0">
            <root>
                <mxCell id="0"/>
                <mxCell id="1" parent="0"/>
                <mxCell id="hM8DisS7Gj-5HCy1pa1a-14" style="edgeStyle=none;html=1;entryX=0;entryY=0.5;entryDx=0;entryDy=0;" edge="1" parent="1" source="7boxjd91qMSVNKTkGt6S-1" target="9ZDk69ope1jAaOdF15rO-1">
                    <mxGeometry relative="1" as="geometry"/>
                </mxCell>
                <mxCell id="7boxjd91qMSVNKTkGt6S-1" value="Customer&lt;br&gt;Web App" style="rounded=0;whiteSpace=wrap;html=1;" vertex="1" parent="1">
                    <mxGeometry x="50" y="150" width="90" height="80" as="geometry"/>
                </mxCell>
                <mxCell id="hM8DisS7Gj-5HCy1pa1a-10" style="edgeStyle=none;html=1;entryX=0;entryY=0.5;entryDx=0;entryDy=0;exitX=1;exitY=0.25;exitDx=0;exitDy=0;" edge="1" parent="1" source="9ZDk69ope1jAaOdF15rO-1" target="9ZDk69ope1jAaOdF15rO-2">
                    <mxGeometry relative="1" as="geometry"/>
                </mxCell>
                <mxCell id="hM8DisS7Gj-5HCy1pa1a-11" style="edgeStyle=none;html=1;entryX=0;entryY=0.5;entryDx=0;entryDy=0;exitX=1;exitY=0.5;exitDx=0;exitDy=0;" edge="1" parent="1" source="9ZDk69ope1jAaOdF15rO-1" target="9ZDk69ope1jAaOdF15rO-3">
                    <mxGeometry relative="1" as="geometry"/>
                </mxCell>
                <mxCell id="hM8DisS7Gj-5HCy1pa1a-21" style="edgeStyle=none;html=1;entryX=0;entryY=0.5;entryDx=0;entryDy=0;exitX=1;exitY=1;exitDx=0;exitDy=0;" edge="1" parent="1" source="9ZDk69ope1jAaOdF15rO-1" target="hM8DisS7Gj-5HCy1pa1a-19">
                    <mxGeometry relative="1" as="geometry"/>
                </mxCell>
                <mxCell id="9ZDk69ope1jAaOdF15rO-1" value="API Gateway" style="rounded=0;whiteSpace=wrap;html=1;" vertex="1" parent="1">
                    <mxGeometry x="240" y="170" width="160" height="40" as="geometry"/>
                </mxCell>
                <mxCell id="hM8DisS7Gj-5HCy1pa1a-7" style="edgeStyle=none;html=1;entryX=0;entryY=0.5;entryDx=0;entryDy=0;entryPerimeter=0;" edge="1" parent="1" source="9ZDk69ope1jAaOdF15rO-2" target="9ZDk69ope1jAaOdF15rO-5">
                    <mxGeometry relative="1" as="geometry"/>
                </mxCell>
                <mxCell id="hM8DisS7Gj-5HCy1pa1a-12" style="edgeStyle=none;html=1;entryX=-0.182;entryY=0.921;entryDx=0;entryDy=0;entryPerimeter=0;" edge="1" parent="1" source="9ZDk69ope1jAaOdF15rO-2" target="hM8DisS7Gj-5HCy1pa1a-1">
                    <mxGeometry relative="1" as="geometry"/>
                </mxCell>
                <mxCell id="9ZDk69ope1jAaOdF15rO-2" value="flight-service" style="rounded=0;whiteSpace=wrap;html=1;" vertex="1" parent="1">
                    <mxGeometry x="520" y="60" width="120" height="60" as="geometry"/>
                </mxCell>
                <mxCell id="hM8DisS7Gj-5HCy1pa1a-8" style="edgeStyle=none;html=1;entryX=0;entryY=0.5;entryDx=0;entryDy=0;entryPerimeter=0;" edge="1" parent="1" source="9ZDk69ope1jAaOdF15rO-3" target="9ZDk69ope1jAaOdF15rO-6">
                    <mxGeometry relative="1" as="geometry"/>
                </mxCell>
                <mxCell id="hM8DisS7Gj-5HCy1pa1a-13" style="edgeStyle=none;html=1;exitX=0;exitY=1;exitDx=0;exitDy=0;entryX=0;entryY=0.819;entryDx=0;entryDy=0;entryPerimeter=0;" edge="1" parent="1" source="9ZDk69ope1jAaOdF15rO-3" target="hM8DisS7Gj-5HCy1pa1a-1">
                    <mxGeometry relative="1" as="geometry">
                        <mxPoint x="230" y="550" as="targetPoint"/>
                    </mxGeometry>
                </mxCell>
                <mxCell id="9ZDk69ope1jAaOdF15rO-3" value="flight-status-service" style="rounded=0;whiteSpace=wrap;html=1;" vertex="1" parent="1">
                    <mxGeometry x="520" y="190" width="120" height="60" as="geometry"/>
                </mxCell>
                <mxCell id="hM8DisS7Gj-5HCy1pa1a-9" style="edgeStyle=none;html=1;entryX=0;entryY=0.5;entryDx=0;entryDy=0;entryPerimeter=0;" edge="1" parent="1" source="9ZDk69ope1jAaOdF15rO-4" target="9ZDk69ope1jAaOdF15rO-7">
                    <mxGeometry relative="1" as="geometry"/>
                </mxCell>
                <mxCell id="9ZDk69ope1jAaOdF15rO-4" value="Monolithic Booking System&lt;br&gt;(Legacy)" style="rounded=0;whiteSpace=wrap;html=1;" vertex="1" parent="1">
                    <mxGeometry x="495" y="429" width="170" height="140" as="geometry"/>
                </mxCell>
                <mxCell id="9ZDk69ope1jAaOdF15rO-5" value="flight DB" style="shape=cylinder3;whiteSpace=wrap;html=1;boundedLbl=1;backgroundOutline=1;size=15;" vertex="1" parent="1">
                    <mxGeometry x="728" y="10" width="60" height="80" as="geometry"/>
                </mxCell>
                <mxCell id="9ZDk69ope1jAaOdF15rO-6" value="flight-status DB" style="shape=cylinder3;whiteSpace=wrap;html=1;boundedLbl=1;backgroundOutline=1;size=15;" vertex="1" parent="1">
                    <mxGeometry x="700" y="150" width="60" height="80" as="geometry"/>
                </mxCell>
                <mxCell id="9ZDk69ope1jAaOdF15rO-7" value="Legacy DB" style="shape=cylinder3;whiteSpace=wrap;html=1;boundedLbl=1;backgroundOutline=1;size=15;" vertex="1" parent="1">
                    <mxGeometry x="730" y="429" width="110" height="140" as="geometry"/>
                </mxCell>
                <mxCell id="hM8DisS7Gj-5HCy1pa1a-5" style="edgeStyle=none;html=1;entryX=0;entryY=0.5;entryDx=0;entryDy=0;entryPerimeter=0;" edge="1" parent="1" source="hM8DisS7Gj-5HCy1pa1a-1" target="hM8DisS7Gj-5HCy1pa1a-2">
                    <mxGeometry relative="1" as="geometry"/>
                </mxCell>
                <mxCell id="hM8DisS7Gj-5HCy1pa1a-1" value="" style="shape=cylinder3;whiteSpace=wrap;html=1;boundedLbl=1;backgroundOutline=1;size=15;rotation=90;" vertex="1" parent="1">
                    <mxGeometry x="348.5" y="429" width="22" height="450" as="geometry"/>
                </mxCell>
                <mxCell id="hM8DisS7Gj-5HCy1pa1a-6" style="edgeStyle=none;html=1;entryX=0;entryY=0.5;entryDx=0;entryDy=0;" edge="1" parent="1" source="hM8DisS7Gj-5HCy1pa1a-2" target="hM8DisS7Gj-5HCy1pa1a-3">
                    <mxGeometry relative="1" as="geometry"/>
                </mxCell>
                <mxCell id="hM8DisS7Gj-5HCy1pa1a-2" value="Elasticsearch DB" style="shape=cylinder3;whiteSpace=wrap;html=1;boundedLbl=1;backgroundOutline=1;size=15;" vertex="1" parent="1">
                    <mxGeometry x="665" y="589" width="140" height="120" as="geometry"/>
                </mxCell>
                <mxCell id="hM8DisS7Gj-5HCy1pa1a-3" value="Kibana" style="swimlane;whiteSpace=wrap;html=1;" vertex="1" parent="1">
                    <mxGeometry x="873.5" y="599" width="120" height="100" as="geometry"/>
                </mxCell>
                <mxCell id="hM8DisS7Gj-5HCy1pa1a-4" value="Streaming Platform&amp;nbsp; for Elasticsearch&lt;br&gt;(e.g., Kafka)" style="text;html=1;strokeColor=none;fillColor=none;align=center;verticalAlign=middle;whiteSpace=wrap;rounded=0;" vertex="1" parent="1">
                    <mxGeometry x="290" y="669" width="250" height="30" as="geometry"/>
                </mxCell>
                <mxCell id="hM8DisS7Gj-5HCy1pa1a-15" value="" style="shape=cylinder3;whiteSpace=wrap;html=1;boundedLbl=1;backgroundOutline=1;size=15;rotation=90;" vertex="1" parent="1">
                    <mxGeometry x="976.5" y="125" width="22" height="190" as="geometry"/>
                </mxCell>
                <mxCell id="hM8DisS7Gj-5HCy1pa1a-16" value="Kafka Topic for Microservices" style="text;html=1;strokeColor=none;fillColor=none;align=center;verticalAlign=middle;whiteSpace=wrap;rounded=0;" vertex="1" parent="1">
                    <mxGeometry x="901.5" y="170" width="172" height="30" as="geometry"/>
                </mxCell>
                <mxCell id="hM8DisS7Gj-5HCy1pa1a-17" value="" style="endArrow=classic;startArrow=classic;html=1;exitX=1;exitY=0.75;exitDx=0;exitDy=0;entryX=0;entryY=1;entryDx=0;entryDy=-15;entryPerimeter=0;" edge="1" parent="1" source="9ZDk69ope1jAaOdF15rO-2" target="hM8DisS7Gj-5HCy1pa1a-15">
                    <mxGeometry width="50" height="50" relative="1" as="geometry">
                        <mxPoint x="470" y="40" as="sourcePoint"/>
                        <mxPoint x="520" y="-10" as="targetPoint"/>
                    </mxGeometry>
                </mxCell>
                <mxCell id="hM8DisS7Gj-5HCy1pa1a-18" value="" style="endArrow=classic;startArrow=classic;html=1;entryX=0.5;entryY=1;entryDx=0;entryDy=0;entryPerimeter=0;exitX=1;exitY=1;exitDx=0;exitDy=0;" edge="1" parent="1" source="9ZDk69ope1jAaOdF15rO-3" target="hM8DisS7Gj-5HCy1pa1a-15">
                    <mxGeometry width="50" height="50" relative="1" as="geometry">
                        <mxPoint x="390" y="70" as="sourcePoint"/>
                        <mxPoint x="440" y="20" as="targetPoint"/>
                    </mxGeometry>
                </mxCell>
                <mxCell id="hM8DisS7Gj-5HCy1pa1a-20" style="edgeStyle=none;html=1;entryX=0.541;entryY=0.014;entryDx=0;entryDy=0;entryPerimeter=0;" edge="1" parent="1" source="hM8DisS7Gj-5HCy1pa1a-19" target="9ZDk69ope1jAaOdF15rO-4">
                    <mxGeometry relative="1" as="geometry"/>
                </mxCell>
                <mxCell id="hM8DisS7Gj-5HCy1pa1a-23" style="edgeStyle=none;html=1;entryX=0;entryY=0;entryDx=0;entryDy=330;entryPerimeter=0;exitX=0;exitY=0.75;exitDx=0;exitDy=0;" edge="1" parent="1" source="hM8DisS7Gj-5HCy1pa1a-19" target="hM8DisS7Gj-5HCy1pa1a-1">
                    <mxGeometry relative="1" as="geometry"/>
                </mxCell>
                <mxCell id="hM8DisS7Gj-5HCy1pa1a-19" value="booking_system-gateway" style="rounded=0;whiteSpace=wrap;html=1;" vertex="1" parent="1">
                    <mxGeometry x="500" y="310" width="150" height="60" as="geometry"/>
                </mxCell>
                <mxCell id="hM8DisS7Gj-5HCy1pa1a-22" value="" style="endArrow=classic;startArrow=classic;html=1;exitX=1;exitY=1;exitDx=0;exitDy=-15;exitPerimeter=0;entryX=1;entryY=0.75;entryDx=0;entryDy=0;" edge="1" parent="1" source="hM8DisS7Gj-5HCy1pa1a-15" target="hM8DisS7Gj-5HCy1pa1a-19">
                    <mxGeometry width="50" height="50" relative="1" as="geometry">
                        <mxPoint x="320.5" y="310" as="sourcePoint"/>
                        <mxPoint x="520" y="310" as="targetPoint"/>
                    </mxGeometry>
                </mxCell>
                <mxCell id="hM8DisS7Gj-5HCy1pa1a-24" value="Event Data published to&amp;nbsp;" style="text;html=1;strokeColor=none;fillColor=none;align=center;verticalAlign=middle;whiteSpace=wrap;rounded=0;" vertex="1" parent="1">
                    <mxGeometry x="220" y="535" width="180" height="30" as="geometry"/>
                </mxCell>
                <mxCell id="hM8DisS7Gj-5HCy1pa1a-25" value="Microservices will interact through" style="text;html=1;strokeColor=none;fillColor=none;align=center;verticalAlign=middle;whiteSpace=wrap;rounded=0;rotation=-90;" vertex="1" parent="1">
                    <mxGeometry x="734" y="200" width="200" height="30" as="geometry"/>
                </mxCell>
            </root>
        </mxGraphModel>
    </diagram>
</mxfile>